<?xml version="1.0" encoding="UTF-8"?>
<svg id="Layer_2" data-name="Layer 2" xmlns="http://www.w3.org/2000/svg" viewBox="0 0 1092.33 678.55">
  <defs>
    <style>
      .cls-1 {
        fill: #0d0c0f;
      }
    </style>
  </defs>
  <g id="Layer_1-2" data-name="Layer 1">
    <g>
      <path class="cls-1" d="M307.05.15C134.68,17.08,0,162.45,0,339.27c0,176.82,134.68,322.19,307.05,339.12,18.09,1.78,33.72-12.56,33.72-30.73V30.88c0-18.17-15.64-32.51-33.72-30.73Z"/>
      <path class="cls-1" d="M678.65.15c-172.37,16.93-307.05,162.3-307.05,339.12,0,176.82,134.68,322.19,307.05,339.12,18.09,1.78,33.72-12.56,33.72-30.73V30.88c0-18.17-15.64-32.51-33.72-30.73Z"/>
      <path class="cls-1" d="M983.41,339.16c63.92-26.61,108.86-89.66,108.86-163.22,0-91.69-69.83-167.08-159.21-175.87V0h-156.29c-14.51,0-26.28,11.76-26.28,26.28v625.79c0,14.51,11.76,26.28,26.28,26.28h153.37c.96.08,1.93.1,2.92,0,89.41-8.78,159.27-84.19,159.27-175.91,0-73.59-44.97-136.66-108.92-163.27Z"/>
    </g>
  </g>
</svg>